<?xml version="1.0" encoding="UTF-8"?>
<svg id="_레이어_2" data-name="레이어 2" xmlns="http://www.w3.org/2000/svg" viewBox="0 0 350.22 73.07">
  <defs>
    <style>
      .cls-1 {
        fill: #4686c2;
      }

      .cls-2 {
        fill: #31373a;
      }
    </style>
  </defs>
  <g id="_레이어_1-2" data-name="레이어 1">
    <g>
      <g>
        <path class="cls-2" d="M183.46,71.43V4.08h-24.43V1.54h51.63v2.55h-24.54V71.43h-2.66Z"/>
        <path class="cls-2" d="M223.24,71.43V1.54h2.76V33.93h43.13V1.54h2.76V71.43h-2.76V36.27h-43.13v35.16h-2.76Z"/>
        <path class="cls-1" d="M37.66,41.74c-2.87-2.66-7.38-5.05-13.54-7.17l-4.35-1.27c-5.95-2.12-10.02-4.32-12.22-6.59-2.2-2.27-3.29-5.56-3.29-9.88s1.45-7.4,4.36-9.88c2.9-2.48,7.19-3.72,12.85-3.72,4.4,0,8.27,.53,11.62,1.59V2.38c-3.4-1.05-7.24-1.59-11.51-1.59-6.52,0-11.49,1.51-14.92,4.51C3.2,8.32,1.49,12.23,1.49,17.04s1.31,8.69,3.93,11.42c2.62,2.73,7.08,5.15,13.38,7.28l4.46,1.49c5.38,1.7,9.36,3.75,11.95,6.16,2.58,2.41,3.88,5.91,3.88,10.52,0,10.62-6.52,15.93-19.55,15.93-3.54,0-6.88-.39-10.02-1.14-3.4-.81-6.58-2.06-9.52-3.75v2.44c2.87,1.71,6.05,2.96,9.52,3.78,3.13,.73,6.5,1.11,10.13,1.11,7.58,0,13.19-1.63,16.84-4.89,3.65-3.26,5.47-7.82,5.47-13.7,0-5.31-1.43-9.29-4.3-11.95Z"/>
        <g>
          <polygon class="cls-2" points="127.96 1.54 125.3 1.54 106.07 67.18 105.97 67.18 97.4 39.46 94.53 39.46 104.48 71.43 107.56 71.43 124.8 12.35 124.8 12.35 124.8 12.35 126.47 6.63 126.5 6.63 127.99 1.64 127.96 1.54"/>
          <polygon class="cls-2" points="98.98 1.54 96.33 1.54 77.1 67.18 77 67.18 68.42 39.46 57.41 3.46 54.55 3.46 65.56 39.46 65.56 39.46 65.69 39.9 65.69 39.9 65.69 39.9 75.51 71.43 78.59 71.43 95.83 12.35 97.53 6.63 99.01 1.64 98.98 1.54"/>
        </g>
        <path class="cls-1" d="M143.57,71.43V2.97c0-.79,.64-1.43,1.43-1.43h0c.79,0,1.43,.64,1.43,1.43V71.43h-2.87Z"/>
      </g>
      <g>
        <path class="cls-2" d="M319.27,53.65s.04,.09,.07,.13l13.88,13.55c.19,.17,.41,.26,.65,.26,.15,0,.32-.04,.45-.11,.35-.2,.54-.61,.46-1l-4.14-18.96s-.04-.04-.04-.07c-.02-.06-.02-.13-.06-.19L306.2,3.36c-.84-1.52-2.23-2.62-3.9-3.1s-3.42-.28-4.94,.56c-1.52,.84-2.62,2.23-3.1,3.9s-.28,3.42,.56,4.94l24.34,43.88c.04,.06,.09,.07,.11,.11h0Zm9.68-5.22l3.36,15.39-11.28-11,.32-1.1,1.64,.46c.24,.07,.48,.04,.71-.07s.37-.32,.45-.56l.46-1.64,1.64,.46c.5,.15,1-.15,1.15-.63l.46-1.64,1.1,.31ZM296.05,5.24c.33-1.19,1.13-2.17,2.21-2.79,1.08-.59,2.34-.74,3.53-.41,1.19,.33,2.17,1.13,2.79,2.21l23.25,41.91-.37-.11c-.48-.15-1,.15-1.15,.63l-.46,1.64-1.26-.35-23.25-41.91c-.24-.45-.82-.61-1.26-.35-.45,.24-.61,.82-.35,1.26l23.25,41.91-.35,1.26-1.64-.46c-.24-.07-.48-.04-.71,.07s-.37,.32-.45,.56l-.11,.37-23.25-41.91c-.61-1.08-.74-2.34-.41-3.53h0Z"/>
        <path class="cls-1" d="M288.92,70.47c.09,.5,.59,.84,1.1,.72,.09-.02,9.24-1.8,18.21,0,8.83,1.77,23.94,1.88,26.09,1.88h.22l14.87-1.86c.5-.06,.87-.52,.8-1.04-.06-.5-.52-.87-1.04-.8l-14.76,1.86c-.17,0-16.74-.02-25.83-1.84-9.37-1.88-18.57-.07-18.96,0-.48,.07-.8,.56-.71,1.08h0Z"/>
      </g>
    </g>
  </g>
</svg>