<?xml version="1.0" encoding="UTF-8"?>
<svg id="_레이어_2" data-name="레이어 2" xmlns="http://www.w3.org/2000/svg" viewBox="0 0 271.89 71.49">
  <defs>
    <style>
      .cls-1 {
        fill: #4686c2;
      }

      .cls-2 {
        fill: #31373a;
      }
    </style>
  </defs>
  <g id="_레이어_1-2" data-name="레이어 1">
    <g>
      <path class="cls-2" d="M183.46,70.64V3.29h-24.43V.74h51.63V3.29h-24.54V70.64h-2.66Z"/>
      <path class="cls-2" d="M223.24,70.64V.74h2.76V33.14h43.13V.74h2.76V70.64h-2.76V35.48h-43.13v35.16h-2.76Z"/>
      <path class="cls-1" d="M37.66,40.95c-2.87-2.66-7.38-5.05-13.54-7.17l-4.35-1.27c-5.95-2.12-10.02-4.32-12.22-6.59-2.2-2.27-3.29-5.56-3.29-9.88s1.45-7.4,4.36-9.88c2.9-2.48,7.19-3.72,12.85-3.72,4.4,0,8.27,.53,11.62,1.59V1.59c-3.4-1.05-7.24-1.59-11.51-1.59C15.05,0,10.07,1.51,6.64,4.51,3.2,7.53,1.49,11.44,1.49,16.25s1.31,8.69,3.93,11.42c2.62,2.73,7.08,5.15,13.38,7.28l4.46,1.49c5.38,1.7,9.36,3.75,11.95,6.16,2.58,2.41,3.88,5.91,3.88,10.52,0,10.62-6.52,15.93-19.55,15.93-3.54,0-6.88-.39-10.02-1.14-3.4-.81-6.58-2.06-9.52-3.75v2.44c2.87,1.71,6.05,2.96,9.52,3.78,3.13,.73,6.5,1.11,10.13,1.11,7.58,0,13.19-1.63,16.84-4.89,3.65-3.26,5.47-7.82,5.47-13.7,0-5.31-1.43-9.29-4.3-11.95Z"/>
      <g>
        <polygon class="cls-2" points="127.96 .74 125.3 .74 106.07 66.39 105.97 66.39 97.4 38.66 94.53 38.66 104.48 70.64 107.56 70.64 124.8 11.56 124.8 11.56 124.8 11.56 126.47 5.84 126.5 5.84 127.99 .85 127.96 .74"/>
        <polygon class="cls-2" points="98.98 .74 96.33 .74 77.1 66.39 77 66.39 68.42 38.66 57.41 2.67 54.55 2.67 65.56 38.66 65.56 38.66 65.69 39.11 65.69 39.11 65.69 39.11 75.51 70.64 78.59 70.64 95.83 11.56 97.53 5.84 99.01 .85 98.98 .74"/>
      </g>
      <path class="cls-1" d="M143.57,70.64V2.18c0-.79,.64-1.43,1.43-1.43h0c.79,0,1.43,.64,1.43,1.43V70.64h-2.87Z"/>
    </g>
  </g>
</svg>