<?xml version="1.0" encoding="UTF-8"?>
<svg id="_레이어_2" data-name="레이어 2" xmlns="http://www.w3.org/2000/svg" viewBox="0 0 443.63 167.76">
  <defs>
    <style>
      .cls-1, .cls-2 {
        fill: #fff;
      }

      .cls-3 {
        fill: #4686c2;
      }

      .cls-4 {
        fill: #31373a;
      }

      .cls-2 {
        stroke: #31373a;
        stroke-miterlimit: 10;
        stroke-width: 2.5px;
      }
    </style>
  </defs>
  <g id="_레이어_1-2" data-name="레이어 1">
    <g>
      <g>
        <path class="cls-3" d="M296.65,46.2v-14.11h1.29v14.11h-1.29Z"/>
        <path class="cls-4" d="M324.83,44.52h-12.46v-1.36h12.46v1.36Zm-.33-5.96l-.84,1.33c-1.06-.3-2.09-.83-3.08-1.61-.99-.77-1.66-1.59-2-2.45-.31,.89-.96,1.71-1.96,2.48s-2.04,1.29-3.13,1.58l-.77-1.4c.77-.13,1.54-.42,2.31-.87,.76-.44,1.41-1.03,1.95-1.77,.54-.74,.8-1.51,.8-2.32v-.98h1.66v.98c0,.8,.28,1.57,.84,2.32s1.22,1.35,1.99,1.81c.76,.46,1.51,.75,2.23,.9Z"/>
        <path class="cls-4" d="M344.34,37.05v1.38h-4.07v3.26c2.35,0,4.23-.15,5.62-.45l.23,1.35c-1.36,.31-3.35,.48-5.97,.5h-1.44v-10.1h6.32v1.35h-4.75v2.71h4.07Zm5.14,9.44h-1.58v-7.99h-2.49v-1.42h2.49v-5.43h1.58v14.83Z"/>
        <path class="cls-4" d="M372.18,40.92l.22,1.42c-1.33,.31-3.36,.48-6.08,.5h-1.55v-9.8h6.25v1.38h-4.69v6.96c2.67,0,4.62-.15,5.85-.45Zm3,5.56h-1.6v-14.83h1.6v14.83Z"/>
        <path class="cls-4" d="M394.98,46.05h-1.59v-5.08c-1.36,.07-2.59,.1-3.68,.1l-.25-1.41c2.1,0,3.68-.03,4.74-.08,1.95-.09,3.5-.2,4.66-.33l.12,1.3c-1.02,.14-2.35,.25-3.99,.33v5.18Zm2.58-10.67c0,.83-.33,1.55-.98,2.15s-1.49,.9-2.5,.9-1.84-.3-2.48-.89-.96-1.31-.96-2.16,.32-1.56,.96-2.16c.64-.6,1.46-.9,2.48-.9s1.87,.3,2.52,.89c.64,.59,.97,1.32,.97,2.17Zm-2.1,1.18c.35-.3,.52-.69,.52-1.18s-.18-.89-.53-1.21c-.36-.32-.81-.47-1.37-.47s-.99,.16-1.33,.47-.51,.72-.51,1.21,.17,.88,.51,1.18c.34,.3,.78,.45,1.33,.45,.58,0,1.04-.15,1.39-.45Zm5.64-4.91v14.83h-1.58v-14.83h1.58Z"/>
        <path class="cls-4" d="M427.92,43.16v1.35h-12.46v-1.35h12.46Zm-1.46-3.36h-9.41v-6.81h9.27v1.35h-7.68v4.09h7.82v1.37Z"/>
        <path class="cls-3" d="M442.34,46.2v-14.11h1.28v14.11h-1.28Z"/>
      </g>
      <g>
        <g>
          <path class="cls-3" d="M1.75,131.25c1.88,.98,4.23,1.93,7.04,2.87,2.82,.94,5.71,1.77,8.68,2.48,2.97,.71,5.88,1.3,8.73,1.75,2.85,.45,5.3,.68,7.32,.68,3.3,0,5.69-.28,7.16-.85s2.2-1.52,2.2-2.87c0-.83-.26-1.54-.79-2.14-.53-.6-1.31-1.14-2.37-1.63-1.05-.49-2.37-.99-3.94-1.52-1.58-.53-3.38-1.13-5.41-1.8-4.36-1.5-8.34-3.16-11.94-4.96-3.61-1.8-6.74-3.91-9.41-6.31-2.67-2.4-4.77-5.2-6.31-8.39-1.54-3.19-2.42-6.93-2.65-11.21-.53-10.44,2.16-18.67,8.06-24.68,5.9-6.01,14.93-9.01,27.1-9.01,6.76,0,12.69,.68,17.8,2.03,5.11,1.35,9.8,3.01,14.08,4.96v27.95c-1.35-.68-3.21-1.39-5.58-2.14-2.37-.75-4.96-1.46-7.77-2.14-2.82-.68-5.63-1.24-8.45-1.69-2.82-.45-5.35-.68-7.61-.68-2.86,0-4.75,.28-5.69,.85-.94,.56-1.41,1.33-1.41,2.31,0,1.13,.6,2.05,1.8,2.76,1.2,.71,2.78,1.41,4.73,2.08,1.43,.53,3,1.07,4.73,1.63,1.73,.56,3.57,1.22,5.52,1.97,4.96,1.88,9.07,3.81,12.34,5.8,3.27,1.99,5.88,4.21,7.83,6.65,1.95,2.44,3.38,5.15,4.28,8.11,.9,2.97,1.43,6.37,1.58,10.2,.23,4.81-.38,9.26-1.8,13.35-1.43,4.09-3.74,7.62-6.93,10.59-3.19,2.97-7.34,5.3-12.45,6.99-5.11,1.69-11.19,2.54-18.25,2.54-2.86,0-5.77-.23-8.73-.68-2.97-.45-5.86-1.07-8.68-1.86-2.82-.79-5.5-1.67-8.06-2.65-2.55-.98-4.77-1.99-6.65-3.04l-.11-28.28Z"/>
          <path class="cls-4" d="M161.42,64.88l10.82,47.55,7.78-47.55h32.34l-23.1,101.41h-30.2l-10.82-44.96-10.82,44.96h-30.2l-23.1-101.41h32.34l7.66,47.44,10.93-47.44h26.37Z"/>
          <path class="cls-4" d="M292.91,92.82h-24.56v-27.94h79.78v27.94h-24.9v73.47h-30.31V92.82Z"/>
          <path class="cls-4" d="M389.09,64.88v34.82h24.23v-34.82h30.31v101.41h-30.31v-37.97h-24.23v37.97h-30.31V64.88h30.31Z"/>
          <g>
            <path class="cls-4" d="M257.45,66.24h0s-.01-.03-.01-.04c0-.17-.03-.33-.07-.49-.01-.05-.02-.09-.04-.14-.04-.13-.09-.25-.16-.37-.01-.03-.02-.06-.03-.09l-15.08-25.45c-.4-.68-1.13-1.09-1.92-1.09-.5,0-.99,.17-1.37,.48-.22,.17-.4,.38-.54,.62l-14.93,25.54s-.01,.04-.02,.06c-.07,.12-.11,.24-.15,.37-.02,.05-.04,.09-.06,.14-.04,.16-.06,.32-.06,.49,0,.02-.01,.04-.01,.06h0s.25,93.5,.25,93.5c.01,4.13,3.38,7.49,7.52,7.48l19.44-.06c4.14-.01,7.49-3.39,7.48-7.52l-.24-93.49Zm-4.24,79.67l-6.1,.02-.2-77.44,6.1-.02,.2,77.44Zm-13.05-100.74l11.17,18.86-22.23,.07,11.06-18.93Zm2.51,100.77h-4.48s-.2-77.42-.2-77.42l4.48-.02,.2,77.44Zm-15.22-77.39l6.1-.02,.19,77.43-6.09,.02-.2-77.43Zm22.75,94.25l-19.45,.06c-1.68,.01-3.06-1.36-3.06-3.04l-.03-9.39,25.56-.08,.03,9.39c0,1.69-1.37,3.06-3.05,3.06Z"/>
            <rect class="cls-1" x="247.01" y="68.48" width="6.1" height="77.44" transform="translate(-.35 .82) rotate(-.19)"/>
            <polygon class="cls-1" points="242.67 145.94 238.19 145.95 237.99 68.52 242.47 68.5 242.67 145.94"/>
            <polygon class="cls-1" points="233.74 145.96 227.65 145.98 227.45 68.55 233.55 68.53 233.74 145.96"/>
            <polygon class="cls-1" points="251.33 64.03 229.1 64.1 240.16 45.17 251.33 64.03"/>
            <path class="cls-3" d="M253.25,159.74c0,1.69-1.37,3.06-3.05,3.06l-19.45,.06c-1.68,.01-3.06-1.36-3.06-3.04l-.03-9.39,25.56-.08,.03,9.39Z"/>
          </g>
          <circle class="cls-4" cx="240.35" cy="46.7" r="4.54"/>
        </g>
        <g>
          <g>
            <ellipse class="cls-2" cx="25.14" cy="66.61" rx="11.18" ry="16.8"/>
            <ellipse class="cls-4" cx="30.53" cy="66.61" rx="5.79" ry="8.69"/>
          </g>
          <g>
            <ellipse class="cls-2" cx="48.33" cy="66.61" rx="11.18" ry="16.8"/>
            <ellipse class="cls-4" cx="53.72" cy="66.61" rx="5.79" ry="8.69"/>
          </g>
        </g>
        <g>
          <path class="cls-2" d="M104.2,49.48c3.32-.56,6.53-1.61,9.39-3.56,3.47-2.37,6.3-5.63,8.16-9.4,2.81-5.69,3.28-12.36,1.31-18.39-4.19-12.84-17.99-19.85-30.83-15.67-4.1,1.34-7.81,3.75-10.67,6.98s-4.74,6.99-5.63,11.09c-.6,2.76-.54,5.6-.4,8.4,.14,2.86,.25,5.71,.12,8.58-.17,3.63-.47,7.41-2.06,10.74-.46,.96-1.05,1.9-1.94,2.5-.56,.38,.44,.53,1.71,.48,7.77-.27,15.53-.94,23.3-1.12,2.52-.06,5.06-.21,7.54-.63Z"/>
          <g>
            <circle class="cls-3" cx="88" cy="26.24" r="3.87"/>
            <circle class="cls-3" cx="99.95" cy="26.24" r="3.87"/>
            <circle class="cls-3" cx="111.9" cy="26.24" r="3.87"/>
          </g>
        </g>
      </g>
    </g>
  </g>
</svg>